<svg width="192" height="37" viewBox="0 0 192 37" fill="none" xmlns="http://www.w3.org/2000/svg">
<path d="M12.456 13.152V16.44H5.592V19.992H10.728V23.184H5.592V30H1.488V13.152H12.456ZM17.445 13.152V23.232C17.445 24.24 17.693 25.016 18.189 25.56C18.685 26.104 19.413 26.376 20.373 26.376C21.333 26.376 22.069 26.104 22.581 25.56C23.093 25.016 23.349 24.24 23.349 23.232V13.152H27.453V23.208C27.453 24.712 27.133 25.984 26.493 27.024C25.853 28.064 24.989 28.848 23.901 29.376C22.829 29.904 21.629 30.168 20.301 30.168C18.973 30.168 17.781 29.912 16.725 29.4C15.685 28.872 14.861 28.088 14.253 27.048C13.645 25.992 13.341 24.712 13.341 23.208V13.152H17.445ZM41.2549 13.152V16.44H36.7909V30H32.6869V16.44H28.2229V13.152H41.2549ZM46.1466 13.152V23.232C46.1466 24.24 46.3946 25.016 46.8906 25.56C47.3866 26.104 48.1146 26.376 49.0746 26.376C50.0346 26.376 50.7706 26.104 51.2826 25.56C51.7946 25.016 52.0506 24.24 52.0506 23.232V13.152H56.1546V23.208C56.1546 24.712 55.8346 25.984 55.1946 27.024C54.5546 28.064 53.6906 28.848 52.6026 29.376C51.5306 29.904 50.3306 30.168 49.0026 30.168C47.6746 30.168 46.4826 29.912 45.4266 29.4C44.3866 28.872 43.5626 28.088 42.9546 27.048C42.3466 25.992 42.0426 24.712 42.0426 23.208V13.152H46.1466ZM66.4284 30L62.9244 23.64H61.9404V30H57.8364V13.152H64.7244C66.0524 13.152 67.1804 13.384 68.1084 13.848C69.0524 14.312 69.7564 14.952 70.2204 15.768C70.6844 16.568 70.9164 17.464 70.9164 18.456C70.9164 19.576 70.5964 20.576 69.9564 21.456C69.3324 22.336 68.4044 22.96 67.1724 23.328L71.0604 30H66.4284ZM61.9404 20.736H64.4844C65.2364 20.736 65.7964 20.552 66.1644 20.184C66.5484 19.816 66.7404 19.296 66.7404 18.624C66.7404 17.984 66.5484 17.48 66.1644 17.112C65.7964 16.744 65.2364 16.56 64.4844 16.56H61.9404V20.736ZM76.3967 16.44V19.848H81.8927V23.016H76.3967V26.712H82.6127V30H72.2927V13.152H82.6127V16.44H76.3967Z" fill="#EB4A47"/>
<path d="M88.792 21.552C88.792 19.888 89.152 18.408 89.872 17.112C90.592 15.8 91.592 14.784 92.872 14.064C94.168 13.328 95.632 12.96 97.264 12.96C99.264 12.96 100.976 13.488 102.4 14.544C103.824 15.6 104.776 17.04 105.256 18.864H100.744C100.408 18.16 99.928 17.624 99.304 17.256C98.696 16.888 98 16.704 97.216 16.704C95.952 16.704 94.928 17.144 94.144 18.024C93.36 18.904 92.968 20.08 92.968 21.552C92.968 23.024 93.36 24.2 94.144 25.08C94.928 25.96 95.952 26.4 97.216 26.4C98 26.4 98.696 26.216 99.304 25.848C99.928 25.48 100.408 24.944 100.744 24.24H105.256C104.776 26.064 103.824 27.504 102.4 28.56C100.976 29.6 99.264 30.12 97.264 30.12C95.632 30.12 94.168 29.76 92.872 29.04C91.592 28.304 90.592 27.288 89.872 25.992C89.152 24.696 88.792 23.216 88.792 21.552ZM117.057 27.024H110.769L109.761 30H105.465L111.561 13.152H116.313L122.409 30H118.065L117.057 27.024ZM116.001 23.856L113.913 17.688L111.849 23.856H116.001ZM131.657 30L128.153 23.64H127.169V30H123.065V13.152H129.953C131.281 13.152 132.409 13.384 133.337 13.848C134.281 14.312 134.985 14.952 135.449 15.768C135.913 16.568 136.145 17.464 136.145 18.456C136.145 19.576 135.825 20.576 135.185 21.456C134.561 22.336 133.633 22.96 132.401 23.328L136.289 30H131.657ZM127.169 20.736H129.713C130.465 20.736 131.025 20.552 131.393 20.184C131.777 19.816 131.969 19.296 131.969 18.624C131.969 17.984 131.777 17.48 131.393 17.112C131.025 16.744 130.465 16.56 129.713 16.56H127.169V20.736Z" fill="#F4F6F4"/>
<path d="M171.683 15.9H168.15V17.6667H171.683V15.9Z" fill="#F4F6F4"/>
<path d="M153.133 15.9H149.6V17.6667H153.133V15.9Z" fill="#F4F6F4"/>
<path d="M189.783 13.9037L181.683 12.5522C181.529 12.5252 181.384 12.4579 181.265 12.357C181.145 12.2561 181.055 12.1253 181.002 11.978L177.354 1.75783C177.169 1.24346 176.829 0.79874 176.382 0.484207C175.935 0.169674 175.401 0.0006015 174.854 0H145.545C144.999 0.0006015 144.465 0.169674 144.018 0.484207C143.571 0.79874 143.231 1.24346 143.046 1.75783L139.256 12.3755C139.088 12.8522 139.001 13.3539 139 13.8595V27.3833C139.002 28.0855 139.282 28.7583 139.778 29.2548C140.275 29.7514 140.948 30.0312 141.65 30.0333H142.604C142.815 31.504 143.55 32.8491 144.672 33.8222C145.795 34.7952 147.231 35.3308 148.717 35.3308C150.202 35.3308 151.638 34.7952 152.761 33.8222C153.884 32.8491 154.618 31.504 154.829 30.0333H176.171C176.382 31.504 177.116 32.8491 178.239 33.8222C179.362 34.7952 180.798 35.3308 182.283 35.3308C183.769 35.3308 185.205 34.7952 186.328 33.8222C187.45 32.8491 188.185 31.504 188.396 30.0333H189.35C190.052 30.0312 190.725 29.7514 191.222 29.2548C191.718 28.7583 191.998 28.0855 192 27.3833V16.5095C192.002 15.8821 191.779 15.2747 191.373 14.7969C190.966 14.319 190.402 14.0023 189.783 13.9037ZM153.045 30.0333C152.93 30.5848 152.711 31.1093 152.4 31.5792L151.844 31.0227L150.589 32.277L151.146 32.8335C150.676 33.1443 150.151 33.3632 149.6 33.4783V32.6833H147.833V33.4783C147.282 33.3632 146.757 33.1443 146.287 32.8335L146.844 32.277L145.59 31.0227L145.033 31.5792C144.722 31.1093 144.503 30.5848 144.388 30.0333H145.183V28.2667H144.388C144.503 27.7152 144.722 27.1906 145.033 26.7208L145.59 27.2773L146.844 26.023L146.287 25.4665C146.757 25.1556 147.282 24.9368 147.833 24.8217V25.6167H149.6V24.8217C150.151 24.9368 150.676 25.1556 151.146 25.4665L150.589 26.023L151.844 27.2773L152.4 26.7208C152.711 27.1906 152.93 27.7152 153.045 28.2667H152.25V30.0333H153.045ZM164.617 12.3667H154.9V5.3H164.617V12.3667ZM186.612 30.0333C186.496 30.5848 186.278 31.1093 185.967 31.5792L185.41 31.0227L184.156 32.277L184.712 32.8335C184.243 33.1443 183.718 33.3632 183.167 33.4783V32.6833H181.4V33.4783C180.849 33.3632 180.324 33.1443 179.854 32.8335L180.411 32.277L179.156 31.0227L178.6 31.5792C178.289 31.1093 178.07 30.5848 177.955 30.0333H178.75V28.2667H177.955C178.07 27.7152 178.289 27.1906 178.6 26.7208L179.156 27.2773L180.411 26.023L179.854 25.4665C180.324 25.1556 180.849 24.9368 181.4 24.8217V25.6167H183.167V24.8217C183.718 24.9368 184.243 25.1556 184.712 25.4665L184.156 26.023L185.41 27.2773L185.967 26.7208C186.278 27.1906 186.496 27.7152 186.612 28.2667H185.817V30.0333H186.612ZM190.233 22.9667H187.583V24.7333H190.233V27.3833C190.233 27.6176 190.14 27.8423 189.975 28.0079C189.809 28.1736 189.584 28.2667 189.35 28.2667H188.396C188.185 26.796 187.45 25.4508 186.328 24.4778C185.205 23.5048 183.769 22.9692 182.283 22.9692C180.798 22.9692 179.362 23.5048 178.239 24.4778C177.116 25.4508 176.382 26.796 176.171 28.2667H166.383V14.1333H176.983C177.128 14.1335 177.271 14.0982 177.398 14.0304C177.526 13.9627 177.635 13.8645 177.716 13.7447C177.796 13.6247 177.845 13.4875 177.86 13.3446C177.876 13.2017 177.857 13.0572 177.805 12.9232L174.271 4.08983C174.206 3.92547 174.093 3.78456 173.946 3.68534C173.8 3.58612 173.627 3.53316 173.45 3.53333H147.851C147.661 3.53389 147.477 3.59503 147.324 3.70784C147.172 3.82066 147.059 3.97925 147.003 4.1605L144.335 12.9938C144.297 13.1269 144.289 13.2671 144.314 13.4035C144.338 13.5399 144.394 13.6687 144.477 13.78C144.559 13.8897 144.666 13.9787 144.788 14.0401C144.911 14.1014 145.046 14.1333 145.183 14.1333H164.617V28.2667H154.829C154.618 26.796 153.884 25.4508 152.761 24.4778C151.638 23.5048 150.202 22.9692 148.717 22.9692C147.231 22.9692 145.795 23.5048 144.672 24.4778C143.55 25.4508 142.815 26.796 142.604 28.2667H141.65C141.416 28.2667 141.191 28.1736 141.025 28.0079C140.86 27.8423 140.767 27.6176 140.767 27.3833V22.0833H143.417V20.3167H140.767V18.55H143.417V16.7833H140.767V13.8595C140.768 13.556 140.819 13.2547 140.917 12.9673L144.715 2.34967C144.778 2.17937 144.891 2.03224 145.039 1.92802C145.187 1.82381 145.364 1.7675 145.545 1.76667H174.854C175.036 1.7675 175.213 1.82381 175.361 1.92802C175.509 2.03224 175.622 2.17937 175.685 2.34967L179.333 12.5698C179.494 13.0144 179.77 13.4083 180.133 13.711C180.496 14.0137 180.934 14.2143 181.4 14.2923L189.5 15.6438C189.683 15.6747 189.85 15.7647 189.977 15.9H187.583C186.88 15.9 186.206 16.1792 185.709 16.6762C185.213 17.1731 184.933 17.8472 184.933 18.55C184.933 19.2528 185.213 19.9269 185.709 20.4238C186.206 20.9208 186.88 21.2 187.583 21.2H190.233V22.9667ZM166.383 12.3667V5.3H172.849L175.676 12.3667H166.383ZM153.133 5.3V12.3667H146.376L148.505 5.3H153.133ZM190.233 19.4333H187.583C187.349 19.4333 187.124 19.3403 186.959 19.1746C186.793 19.0089 186.7 18.7843 186.7 18.55C186.7 18.3157 186.793 18.091 186.959 17.9254C187.124 17.7597 187.349 17.6667 187.583 17.6667H190.233V19.4333Z" fill="#F4F6F4"/>
<path d="M148.717 26.5C148.193 26.5 147.68 26.6554 147.244 26.9466C146.809 27.2378 146.469 27.6517 146.268 28.1359C146.068 28.6201 146.015 29.1529 146.118 29.667C146.22 30.181 146.472 30.6532 146.843 31.0238C147.213 31.3944 147.686 31.6468 148.2 31.7491C148.714 31.8513 149.247 31.7989 149.731 31.5983C150.215 31.3977 150.629 31.058 150.92 30.6223C151.211 30.1865 151.367 29.6741 151.367 29.15C151.367 28.4472 151.087 27.7731 150.59 27.2762C150.094 26.7792 149.419 26.5 148.717 26.5ZM148.717 30.0333C148.542 30.0333 148.371 29.9815 148.226 29.8845C148.081 29.7874 147.967 29.6494 147.901 29.488C147.834 29.3266 147.816 29.149 147.85 28.9777C147.884 28.8063 147.969 28.6489 148.092 28.5254C148.216 28.4019 148.373 28.3177 148.544 28.2836C148.716 28.2496 148.893 28.2671 149.055 28.3339C149.216 28.4008 149.354 28.514 149.451 28.6592C149.548 28.8045 149.6 28.9753 149.6 29.15C149.6 29.3843 149.507 29.609 149.341 29.7746C149.176 29.9403 148.951 30.0333 148.717 30.0333Z" fill="#F4F6F4"/>
<path d="M182.283 26.5C181.759 26.5 181.247 26.6554 180.811 26.9466C180.375 27.2378 180.036 27.6517 179.835 28.1359C179.634 28.6201 179.582 29.1529 179.684 29.667C179.786 30.181 180.039 30.6532 180.409 31.0238C180.78 31.3944 181.252 31.6468 181.766 31.7491C182.28 31.8513 182.813 31.7989 183.297 31.5983C183.782 31.3977 184.196 31.058 184.487 30.6223C184.778 30.1865 184.933 29.6741 184.933 29.15C184.933 28.4472 184.654 27.7731 184.157 27.2762C183.66 26.7792 182.986 26.5 182.283 26.5ZM182.283 30.0333C182.109 30.0333 181.938 29.9815 181.793 29.8845C181.647 29.7874 181.534 29.6494 181.467 29.488C181.4 29.3266 181.383 29.149 181.417 28.9777C181.451 28.8063 181.535 28.6489 181.659 28.5254C181.782 28.4019 181.94 28.3177 182.111 28.2836C182.282 28.2496 182.46 28.2671 182.621 28.3339C182.783 28.4008 182.921 28.514 183.018 28.6592C183.115 28.8045 183.167 28.9753 183.167 29.15C183.167 29.3843 183.074 29.609 182.908 29.7746C182.742 29.9403 182.518 30.0333 182.283 30.0333Z" fill="#F4F6F4"/>
</svg>
